<svg class="md:w-[21.5px] w-[28.67px] md:h-[19.5px] h-[26px]" xmlns="http://www.w3.org/2000/svg"
  width="22" height="20" viewBox="0 0 22 20" fill="none">
  <path fill-rule="evenodd" clip-rule="evenodd"
    d="M9.68706 1.30056C9.85309 0.921075 9.68004 0.478852 9.30056 0.312827C8.92107 0.146803 8.47885 0.319846 8.31283 0.699331L6.32194 5.24994L2.78016 5.24994C2.48815 5.24993 2.23206 5.24992 2.02149 5.26428C1.80147 5.27929 1.56603 5.31291 1.33555 5.41452C0.947815 5.58547 0.651244 5.84732 0.466055 6.19158C0.287917 6.52274 0.245071 6.87022 0.250433 7.16749C0.255761 7.46281 0.309855 7.75157 0.363762 7.99256C0.396654 8.1396 0.421894 8.2409 0.444641 8.3322C0.468863 8.42942 0.490259 8.5153 0.515056 8.63297C0.596182 9.01793 0.856011 9.32898 1.19688 9.49073C1.56639 9.66607 1.80715 9.98877 1.86937 10.3431L2.46196 13.7175C2.49725 13.9184 2.53169 14.1524 2.56896 14.4056C2.65361 14.9807 2.75283 15.6548 2.90958 16.2651C3.14201 17.1699 3.54362 18.151 4.38167 18.8247L4.38455 18.827C5.01409 19.3281 5.75215 19.5464 6.63078 19.6498C7.48171 19.75 8.54983 19.75 9.88484 19.7499L12.1152 19.7499H12.1152H12.1152C13.4502 19.75 14.5183 19.75 15.3692 19.6498C16.2478 19.5464 16.9859 19.3281 17.6154 18.827L17.6183 18.8247C18.4564 18.151 18.858 17.1699 19.0904 16.2651C19.2472 15.6548 19.3464 14.9807 19.431 14.4056C19.4683 14.1524 19.5027 13.9184 19.538 13.7175L20.1306 10.3431C20.1928 9.98877 20.4336 9.66607 20.8031 9.49073C21.144 9.32898 21.4038 9.01793 21.4849 8.63297C21.5097 8.5153 21.5311 8.42942 21.5554 8.3322L21.5554 8.33208C21.5781 8.24082 21.6034 8.13953 21.6362 7.99256C21.6901 7.75157 21.7442 7.46281 21.7496 7.16749C21.7549 6.87022 21.7121 6.52274 21.5339 6.19159C21.3488 5.84732 21.0522 5.58547 20.6644 5.41453C20.434 5.31291 20.1985 5.27929 19.9785 5.26428C19.7679 5.24992 19.5118 5.24993 19.2198 5.24994H16.9635L14.6708 0.664535C14.4855 0.294051 14.035 0.143883 13.6645 0.329125C13.2941 0.514367 13.1439 0.964872 13.3291 1.33536L15.2864 5.24994L10.5 5.24994C10.0858 5.24994 9.75 5.58573 9.75 5.99994C9.75 6.41415 10.0858 6.74994 10.5 6.74994H16.4846C16.4952 6.75017 16.5058 6.75017 16.5164 6.74994H19.196C19.5189 6.74994 19.7231 6.75035 19.8764 6.76081C20.0248 6.77093 20.0605 6.78755 20.0593 6.78706C20.1774 6.83913 20.2037 6.88504 20.2129 6.90218C20.2292 6.93243 20.2523 7.00003 20.2498 7.14043C20.2472 7.28278 20.2196 7.45429 20.1724 7.66511C20.1587 7.72645 20.1361 7.81974 20.1117 7.92047C20.0897 8.01111 20.0662 8.10778 20.0465 8.19263C19.3184 8.57944 18.7963 9.26908 18.6532 10.0836L18.0606 13.458C18.0109 13.7414 17.9701 14.0206 17.9296 14.298L17.9296 14.2981L17.9296 14.2981C17.8519 14.8306 17.7752 15.3563 17.6376 15.8919C17.4352 16.6797 17.1421 17.2822 16.6799 17.6545C16.355 17.9125 15.9282 18.0737 15.1939 18.1601C14.4409 18.2487 13.4611 18.2499 12.0675 18.2499L9.93245 18.2499C8.53887 18.2499 7.55914 18.2487 6.80609 18.1601C6.07177 18.0737 5.64501 17.9126 5.32014 17.6545C4.85791 17.2822 4.56479 16.6797 4.36241 15.8919C4.22483 15.3563 4.1481 14.8305 4.07038 14.2981C4.02988 14.0207 3.98912 13.7414 3.93935 13.458L3.34676 10.0836C3.20372 9.26908 2.68158 8.57944 1.95348 8.19263C1.93375 8.10777 1.91031 8.0111 1.88834 7.92046L1.88834 7.92046L1.88834 7.92045C1.86392 7.81972 1.8413 7.72644 1.82759 7.66511C1.78043 7.45429 1.75276 7.28278 1.75019 7.14043C1.74766 7.00003 1.77078 6.93244 1.78706 6.90218C1.79628 6.88504 1.82256 6.83912 1.94069 6.78704C1.93893 6.78782 1.97404 6.77101 2.12358 6.76081C2.27686 6.75035 2.48113 6.74994 2.80397 6.74994H5.66569L4.81283 8.69933C4.6468 9.07882 4.81985 9.52104 5.19933 9.68706C5.57882 9.85309 6.02104 9.68004 6.18706 9.30056L9.68706 1.30056ZM8.25 9.99994C8.25 9.58573 8.58579 9.24994 9 9.24994H13C13.4142 9.24994 13.75 9.58572 13.75 9.99994C13.75 10.4142 13.4142 10.7499 13 10.7499H9C8.58579 10.7499 8.25 10.4142 8.25 9.99994Z"
    fill="white"></path>
</svg>