<svg xmlns="http://www.w3.org/2000/svg" fill="none" viewBox="0 0 24 24" class="size-8 md:size-6">
  <path fill="currentColor"
    d="M13.016 1.75c.907 0 1.67-.001 2.257.083.605.087 1.186.284 1.588.813.323.423.41.903.385 1.392a.75.75 0 0 1-1.498-.076c.013-.253-.035-.348-.08-.407-.055-.072-.169-.174-.608-.238-.457-.065-1.09-.067-2.044-.067h-2.032c-.953 0-1.587.002-2.044.067-.44.064-.553.166-.608.238-.045.06-.093.154-.08.407a.75.75 0 0 1-1.49.152l-.008-.076-.004-.183c.004-.425.106-.839.389-1.21.402-.528.983-.725 1.588-.812.588-.084 1.35-.083 2.257-.083zM14.506 5.75c1.188 0 2.165-.002 2.913.11.77.116 1.457.373 1.92 1.017.194.27.316.563.38.878l.023.137.007.076a.75.75 0 0 1-1.476.216l-.015-.076-.02-.106a.7.7 0 0 0-.117-.25c-.122-.17-.334-.32-.924-.408-.61-.092-1.453-.094-2.691-.094H9.494c-1.237 0-2.08.002-2.691.094-.59.088-.802.238-.924.408a.8.8 0 0 0-.137.356.75.75 0 0 1-1.484-.216c.054-.368.182-.707.403-1.015.463-.644 1.15-.901 1.92-1.017.748-.112 1.725-.11 2.913-.11zM16.443 9.75c1.202 0 2.189-.002 2.944.11.775.116 1.468.375 1.932 1.023.463.644.493 1.386.368 2.166-.123.764-.424 1.719-.789 2.888l-.718 2.302c-.448 1.434-.918 2.523-1.808 3.194-.895.674-2.068.817-3.582.817H9.21c-1.514 0-2.687-.143-3.582-.817-.89-.67-1.36-1.76-1.808-3.194l-.718-2.302c-.365-1.17-.665-2.124-.788-2.888-.126-.78-.095-1.522.367-2.166.465-.648 1.157-.907 1.932-1.023.755-.112 1.742-.11 2.944-.11zm-8.886 1.5c-1.25 0-2.104.002-2.722.094-.598.089-.813.242-.936.413-.125.175-.203.438-.104 1.054.102.632.36 1.464.738 2.678l.719 2.304c.448 1.435.808 2.088 1.278 2.442.465.35 1.181.515 2.68.515h5.58c1.499 0 2.215-.164 2.68-.515.47-.354.83-1.007 1.278-2.442l.719-2.304c.379-1.214.636-2.046.738-2.678.1-.616.021-.88-.104-1.054-.123-.171-.338-.324-.936-.413-.618-.092-1.47-.094-2.722-.094z"></path>
</svg>