<svg width="18" height="18" viewBox="0 0 18 18" fill="none" xmlns="http://www.w3.org/2000/svg"
  class="size-6 m-1">
  <g id="elements">
    <path id="Vector (Stroke)" fill-rule="evenodd" clip-rule="evenodd"
      d="M6.11685 13.3207C7.87868 12.3091 10.121 12.3091 11.8828 13.3207C11.9857 13.3798 12.0966 13.4405 12.2115 13.5034C12.6256 13.7301 13.091 13.9849 13.4161 14.2917C13.6187 14.483 13.6779 14.6168 13.6861 14.6899C13.6901 14.7249 13.6974 14.8468 13.4536 15.0708C12.8628 15.6136 12.2759 15.937 11.5718 15.937H6.42785C5.72376 15.937 5.13693 15.6136 4.54611 15.0708C4.30226 14.8468 4.30959 14.7249 4.31355 14.6899C4.32183 14.6168 4.38095 14.483 4.58356 14.2917C4.90865 13.9849 5.37409 13.7301 5.78819 13.5034C5.90306 13.4405 6.01397 13.3798 6.11685 13.3207ZM5.55667 12.3451C5.49266 12.3819 5.4121 12.4256 5.31987 12.4758C4.90563 12.7009 4.25587 13.054 3.81136 13.4736C3.53458 13.7348 3.24828 14.0995 3.19571 14.5632C3.13883 15.0649 3.3699 15.518 3.78501 15.8993C4.48179 16.5394 5.32899 17.062 6.42785 17.062H11.5718C12.6707 17.062 13.5179 16.5394 14.2147 15.8993C14.6298 15.518 14.8608 15.0649 14.804 14.5632C14.7514 14.0995 14.4651 13.7348 14.1883 13.4736C13.7438 13.054 13.0941 12.7009 12.6798 12.4758C12.5876 12.4256 12.507 12.3819 12.443 12.3451C10.3343 11.1343 7.66539 11.1343 5.55667 12.3451Z"
      fill="currentColor"></path>
    <path id="Ellipse 1381 (Stroke)" fill-rule="evenodd" clip-rule="evenodd"
      d="M9 5.43701C10.1391 5.43701 11.0625 6.36042 11.0625 7.49951C11.0625 8.6386 10.1391 9.56201 9 9.56201C7.86091 9.56201 6.9375 8.6386 6.9375 7.49951C6.9375 6.36042 7.86091 5.43701 9 5.43701ZM12.1875 7.49951C12.1875 5.7391 10.7604 4.31201 9 4.31201C7.23959 4.31201 5.8125 5.7391 5.8125 7.49951C5.8125 9.25992 7.23959 10.687 9 10.687C10.7604 10.687 12.1875 9.25992 12.1875 7.49951Z"
      fill="currentColor"></path>
    <path id="Vector (Stroke)_2" fill-rule="evenodd" clip-rule="evenodd"
      d="M9 2.06201C12.8334 2.06201 15.9375 5.15802 15.9375 8.97293C15.9375 9.96988 15.7259 10.9161 15.3456 11.7708C15.2193 12.0546 15.347 12.3871 15.6308 12.5134C15.9146 12.6397 16.2471 12.512 16.3734 12.2282C16.8166 11.2324 17.0625 10.1306 17.0625 8.97293C17.0625 4.53293 13.4509 0.937012 9 0.937012C4.54909 0.937012 0.9375 4.53293 0.9375 8.97293C0.9375 10.1306 1.18345 11.2324 1.62659 12.2282C1.7529 12.512 2.08538 12.6397 2.36921 12.5134C2.65303 12.3871 2.78072 12.0546 2.65441 11.7708C2.27406 10.9161 2.0625 9.96988 2.0625 8.97293C2.0625 5.15802 5.16664 2.06201 9 2.06201Z"
      fill="currentColor"></path>
  </g>
</svg>