<svg width="24" height="22" viewBox="0 0 24 22" class="h-[15.5px] w-[17.5px]"
  xmlns="http://www.w3.org/2000/svg">
  <g id="elements">
    <path fill-rule="evenodd" clip-rule="evenodd"
      d="M4.33301 1.66669C4.33301 1.1144 4.78072 0.666687 5.33301 0.666687L18.6663 0.666688C19.2186 0.666688 19.6663 1.1144 19.6663 1.66669C19.6663 2.21897 19.2186 2.66669 18.6663 2.66669L5.33301 2.66669C4.78072 2.66669 4.33301 2.21897 4.33301 1.66669Z"
      fill="currentColor"></path>
    <path fill-rule="evenodd" clip-rule="evenodd"
      d="M0.333008 11C0.333008 10.4477 0.780723 10 1.33301 10L22.6663 10C23.2186 10 23.6663 10.4477 23.6663 11C23.6663 11.5523 23.2186 12 22.6663 12L1.33301 12C0.780723 12 0.333008 11.5523 0.333008 11Z"
      fill="currentColor"></path>
    <path fill-rule="evenodd" clip-rule="evenodd"
      d="M4.33301 20.3334C4.33301 19.7811 4.78072 19.3334 5.33301 19.3334L18.6663 19.3334C19.2186 19.3334 19.6663 19.7811 19.6663 20.3334C19.6663 20.8857 19.2186 21.3334 18.6663 21.3334L5.33301 21.3334C4.78072 21.3334 4.33301 20.8857 4.33301 20.3334Z"
      fill="currentColor"></path>
  </g>
</svg>