<svg xmlns="http://www.w3.org/2000/svg" fill="none" viewBox="0 0 264 48"
  class="hidden h-12 w-[264px] max-[830px]:w-[200px] md:block">
  <path fill="#00D282"
    d="M30.386 35.776q-.092.066-.185.128-.072.05-.148.1l-.183.12c-.057.033-.112.07-.17.102q-.146.09-.297.174-.08.047-.162.089-.094.05-.187.098c-.05.028-.103.05-.156.078q-.094.046-.19.091l-.233.103q-.122.051-.244.099-.055.021-.11.043l.002-.002c-.905.338-1.817.5-2.692.466a5.5 5.5 0 0 1-.976-.123 4.8 4.8 0 0 1-1.566-.663c-.722-.476-1.31-1.146-1.748-1.962-.528-.98-.837-2.169-.906-3.483-.075-1.49.163-3.14.76-4.82.964-2.727 2.674-4.99 4.621-6.403 1.045-.756 2.158-1.268 3.262-1.476a5.5 5.5 0 0 1 2.228.02q.263.061.512.146a5.1 5.1 0 0 1 2.108 1.424c1.051 1.169 1.707 2.855 1.842 4.778.037-.515.037-.688.027-1.203-.016-.32-.027-.747-.057-1.067q-.046-.529-.132-1.033l.02.162a10 10 0 0 0-.66-2.363c-.375-.878-.873-1.65-1.484-2.28a5.96 5.96 0 0 0-2.983-1.681 6.5 6.5 0 0 0-1.73-.149c-.967.041-1.952.283-2.919.7-1.143.488-2.26 1.22-3.3 2.15-1.97 1.76-3.657 4.227-4.68 7.109-.56 1.581-.868 3.143-.943 4.612-.073 1.41.064 2.736.395 3.92.286 1.022.716 1.936 1.278 2.707a6.3 6.3 0 0 0 1.856 1.714 6 6 0 0 0 1.737.693c.268.059.535.102.81.128.85.08 1.725-.01 2.596-.245 1.664-.514 2.628-1.136 3.086-1.442.272-.195.64-.45.902-.654.837-.69.97-.8 1.301-1.127q-.143.109-.29.215-.01.006-.016.011h.007zm-22.484-3.49a15 15 0 0 1-.444-2.997c-.119-2.402.263-5.056 1.219-7.753 1.55-4.38 4.299-8.014 7.43-10.272a15 15 0 0 1 2.622-1.527A11.4 11.4 0 0 1 21.4 8.9a9 9 0 0 1 2.455-.105 9.3 9.3 0 0 0-1.55-.599l-.759-.132a23 23 0 0 0-.708-.06 9 9 0 0 0-1.895.135c-.89.156-1.78.44-2.66.837-.897.404-1.781.928-2.634 1.556-2.994 2.206-5.618 5.706-7.106 9.909-.915 2.578-1.287 5.108-1.189 7.403.046 1.07.197 2.087.444 3.034.246.946.59 1.821 1.026 2.608a8.8 8.8 0 0 0 1.18 1.664q.116.126.23.246c.05.05.098.105.151.154q.041.033.082.075a8.7 8.7 0 0 0 1.863 1.257 9.2 9.2 0 0 1-1.428-2 11.8 11.8 0 0 1-1-2.594zm9.71 6.763a7 7 0 0 1-1.946-1.589 8.8 8.8 0 0 1-1.44-2.37 11.9 11.9 0 0 1-.797-3.083 15.8 15.8 0 0 1 .034-4.023c.169-1.29.487-2.622.964-3.97 1.006-2.835 2.567-5.324 4.416-7.25a16 16 0 0 1 3.114-2.55 12 12 0 0 1 2.898-1.314 8.7 8.7 0 0 1 2.759-.359q.688.027 1.357.176a6.873 6.873 0 0 1 3.291 1.794 9 9 0 0 0-1.224-1.718c-.041-.043-.083-.09-.124-.13q-.104-.111-.212-.218c-.12-.114-.26-.24-.403-.367a7.4 7.4 0 0 0-3.147-1.562 8 8 0 0 0-1.122-.169 9.1 9.1 0 0 0-2.608.185 11.7 11.7 0 0 0-2.739.976 15.3 15.3 0 0 0-2.74 1.772c-2.764 2.217-5.159 5.54-6.553 9.486-.82 2.317-1.207 4.598-1.205 6.704 0 1.138.117 2.226.34 3.24.218.993.54 1.914.956 2.746a9 9 0 0 0 1.522 2.19 7.5 7.5 0 0 0 2.117 1.568 7.5 7.5 0 0 0 1.664.59q.148.032.297.059l.293.048c.057.006.112.018.169.025.233.02.496.04.766.062a9 9 0 0 0 1.814-.135 9 9 0 0 1-.717-.13 6.8 6.8 0 0 1-1.795-.68zM5.331 19.607c1.223-3.392 3.2-6.307 5.461-8.36a14.5 14.5 0 0 1 2.65-1.928 9.9 9.9 0 0 0-2.337 1.138q-.106.071-.21.142-.13.088-.26.18-.011.01-.026.018-.195.145-.39.298c-.156.12-.311.244-.444.347q-.004.002-.007.007c-.338.297-.555.487-.718.633-.16.153-.365.357-.688.677-.292.322-.477.528-.614.683-.13.155-.298.364-.558.684l-.007.009c-.25.342-.407.56-.521.722l-.455.695q-.005.01-.014.02c-.212.366-.347.597-.443.77a81 81 0 0 0-.386.748c-.181.4-.293.65-.375.837a61 61 0 0 0-.311.797c-.146.44-.236.711-.3.912-.05.183-.118.423-.212.773l-.014.057c-.1.469-.162.752-.206.965-.032.19-.07.438-.128.8l-.009.07c-.05.506-.082.81-.1 1.043-.01.201-.02.464-.035.841v.082c0 .105.005.224.005.348l.005.288q.002.1.006.196l.007.21.062.75c.098.86.288 1.66.562 2.38a14.5 14.5 0 0 1-.164-3.29c.1-1.748.484-3.627 1.175-5.542m-1.565 3.447q-.022.202-.037.397.017-.198.037-.398m24.999 6.804q.267.224.576.41c.39.235.811.415 1.255.541.733.21 1.529.274 2.356.206.976-.083 1.993-.35 3.004-.784 1.91-.823 3.787-2.247 5.268-4.149a12.9 12.9 0 0 0 1.856-3.214c.407-1.035.636-2.061.681-3.028a6.6 6.6 0 0 0-.28-2.34 5 5 0 0 0-.96-1.745 4.7 4.7 0 0 0-1.697-1.248 5.8 5.8 0 0 0-2.002-.466s-1.02-.037-1.746.105h-.007a10 10 0 0 0-.915.204c-.251.077-.59.175-.838.262-.796.307-.924.357-1.255.517a7 7 0 0 1 .455-.142q.069-.02.134-.036l.167-.044q.074-.02.153-.034c.09-.02.176-.039.266-.055l.144-.027.164-.028q.07-.011.135-.018l.162-.02.201-.019q.104-.009.206-.014c.032 0 .062-.004.094-.004h-.002c.76-.028 1.483.077 2.13.322q.367.137.7.336c.397.24.73.54 1.005.887.423.535.693 1.184.818 1.902.149.864.085 1.83-.192 2.83-.315 1.133-.905 2.306-1.769 3.414-1.401 1.797-3.243 3.063-5.051 3.632-.97.306-1.93.412-2.805.29a4.3 4.3 0 0 1-1.662-.57 3.978 3.978 0 0 1-1.566-1.826c-.493-1.137-.562-2.561-.184-4.03a8 8 0 0 0-.32.89c-.069.243-.165.567-.224.812a9 9 0 0 0-.158.804l.025-.125a8 8 0 0 0-.096 1.931c.062.75.24 1.45.542 2.073a4.7 4.7 0 0 0 1.234 1.591zm19.586 2.597c1.326-1.699 2.235-3.497 2.734-5.237.233-.811.372-1.609.425-2.377a9 9 0 0 0-.114-2.206 7 7 0 0 0-.467-1.538q-.058-.125-.112-.242-.036-.076-.075-.154l-.044-.077a6.9 6.9 0 0 0-1.078-1.406c.267.572.457 1.193.569 1.852.119.692.15 1.428.098 2.19-.053.76-.192 1.549-.416 2.349-.51 1.824-1.458 3.712-2.846 5.49-2.251 2.885-5.211 4.917-8.114 5.826-.789.247-1.575.412-2.34.487-.76.076-1.5.064-2.204-.04a7.2 7.2 0 0 1-1.863-.533c.3.297.633.576 1.008.834l.535.288c.155.07.331.146.514.222q.694.26 1.45.372c.703.105 1.44.117 2.198.04.77-.079 1.561-.25 2.357-.508 2.788-.903 5.62-2.864 7.783-5.635zm-12.798 3.15a12 12 0 0 0 2.49-.64c2.619-.97 5.236-2.856 7.263-5.454 1.191-1.527 2.05-3.136 2.572-4.711.283-.85.468-1.694.553-2.508a9.2 9.2 0 0 0-.03-2.29 7.2 7.2 0 0 0-.592-2.016 5.9 5.9 0 0 0-1.19-1.698 5.8 5.8 0 0 0-1.098-.855c-.068-.041-.14-.08-.208-.119l-.205-.107q-.062-.031-.12-.062c-.168-.073-.36-.155-.557-.238a7 7 0 0 0-1.392-.352q.258.129.503.274.668.406 1.172.956c.45.487.803 1.05 1.059 1.67.267.655.43 1.372.484 2.131.057.796 0 1.637-.173 2.503-.197.98-.54 1.99-1.029 2.999-.448.921-1.02 1.84-1.712 2.727-1.458 1.87-3.248 3.34-5.109 4.317-.98.517-1.979.896-2.962 1.13a9.3 9.3 0 0 1-2.494.258 6.9 6.9 0 0 1-2.15-.419 5.7 5.7 0 0 1-.97-.468 5.362 5.362 0 0 1-2.011-2.16 7.2 7.2 0 0 0 .546 1.719q.052.107.105.215c.06.114.135.244.21.375a5.8 5.8 0 0 0 1.964 1.95q.384.232.796.406a7 7 0 0 0 1.997.512 9.2 9.2 0 0 0 2.29-.046zm16.28-6.659c.139-.667.196-1.312.17-1.918a11.6 11.6 0 0 1-.697 2.499c-.512 1.282-1.266 2.59-2.26 3.851-1.76 2.231-3.966 3.916-6.167 4.887-.83.366-1.657.629-2.462.782a7.7 7.7 0 0 0 2.03-.268q.096-.028.192-.052.12-.034.24-.071c.007 0 .014-.005.023-.007q.182-.058.366-.126c.146-.052.292-.105.418-.148q.003 0 .007-.003c.327-.137.537-.224.692-.294.158-.076.361-.177.684-.334.3-.17.487-.275.628-.357a61 61 0 0 0 .595-.377c.272-.194.443-.315.569-.409.119-.091.274-.217.512-.407.004-.005.009-.007.013-.014.252-.221.407-.358.524-.464l.455-.443.02-.02.49-.533c.095-.114.223-.265.409-.49q.009-.014.022-.029l.45-.606c.085-.123.195-.288.353-.526q.011-.019.025-.038c.192-.325.308-.521.393-.67l.295-.565.025-.05c.165-.366.263-.585.336-.754.057-.149.13-.34.235-.62l.021-.061.082-.26.069-.216.043-.148q.024-.08.046-.16v.006-.006c.041-.172.094-.38.142-.576z"></path>
  <path fill="#fff"
    d="M64.668 14.857v3.657h10.97V24h3.658v-5.486l-3.657-3.657zM64.668 18.514H61.01v14.629h3.658v-5.486h10.97V24h-10.97zM128.667 14.857l-3.657 3.657h10.972000000000001v14.629h3.657V18.514l-3.657-3.657zM125.01 18.514h-3.657v14.629h3.657zM168.896 14.857h-7.314v3.657h7.314zM176.21 14.857h-3.657l-3.657 3.657v14.629h3.657V18.514h3.657l3.657-3.657zM145.125 18.514h-3.658v10.972l3.658 3.657h12.799999999999999l-3.658-3.657h-9.142v-3.657h10.971V22.17h-10.971z"></path>
  <path fill="#fff"
    d="M145.125 14.857v3.657h10.971v3.658h3.657v-3.658l-3.657-3.657zM84.782 14.857h-3.657v14.629h3.657zM84.782 29.486v3.657h10.971l3.657-3.657H84.782M104.896 25.829h-3.657v3.657l3.657 3.657h14.629l-3.658-3.657h-10.971z"></path>
  <path fill="#fff"
    d="M106.725 14.857h-3.658l3.658 3.657h9.142v3.658h-10.971v3.657h10.971v3.657h3.658V18.514l-3.658-3.657z"></path>
  <path fill="#00D282"
    d="M260.325 20.343v-5.486h-3.658V24c1.829 0 3.658-1.828 3.658-3.657M236.553 22.171h-9.143a5.49 5.49 0 0 0-5.485 5.486 5.49 5.49 0 0 0 5.485 5.486h7.315a5.49 5.49 0 0 0 5.485-5.486v-9.143h-3.657zm0 5.486a1.83 1.83 0 0 1-1.828 1.829h-7.315a1.83 1.83 0 0 1-1.828-1.829 1.83 1.83 0 0 1 1.828-1.828h9.143zM227.41 14.857h-3.657c0 1.829 1.829 3.657 3.657 3.657h9.143v-3.657zM193.582 14.857h-8.229v3.657h8.229a2.745 2.745 0 0 1 2.743 2.743A2.745 2.745 0 0 1 193.582 24h-8.229v-5.486h-3.657v14.629h3.657v-5.486h8.229c3.529 0 6.4-2.87 6.4-6.4 0-3.529-2.871-6.4-6.4-6.4"></path>
  <path fill="#00D282"
    d="M245.696 22.172v-7.315h-3.657v7.315a5.493 5.493 0 0 0 5.486 5.485h9.142v1.829h-10.971c-1.829 0-3.657 1.828-3.657 3.657h14.628c1.829 0 3.658-1.829 3.658-3.657v-1.829c0-1.828-1.829-3.657-3.658-3.657h-9.142a1.83 1.83 0 0 1-1.829-1.828M216.439 29.486h-10.972c0 1.828 1.829 3.657 3.658 3.657h10.971c0-1.829-1.829-3.657-3.657-3.657M205.467 14.857h-3.657v14.629h3.657z"></path>
</svg>