<svg xmlns="http://www.w3.org/2000/svg" width="32" height="32" viewBox="0 0 32 32"
  fill="currentColor" class="size-8 md:size-6">
  <path fill-rule="evenodd" clip-rule="evenodd"
    d="M6.25264 5.9457C6.25264 5.06204 6.97623 4.33325 7.88422 4.33325H24.1106C25.0186 4.33325 25.7422 5.06204 25.7422 5.9457C25.7422 7.0304 26.0273 8.09592 26.5689 9.03685L27.8538 11.2691C28.2205 11.9061 28.2887 12.0457 28.3172 12.3881C28.3388 12.6473 28.3297 12.7461 28.3229 12.7892C28.3164 12.8308 28.3074 12.8633 28.2423 13.0381L29.1794 13.3872L28.2423 13.0381C27.8165 14.1813 26.7056 14.9999 25.3991 14.9999C23.7192 14.9999 22.3698 13.6499 22.3698 11.9999C22.3698 11.498 21.9978 11.0739 21.5002 11.0085C21.0026 10.943 20.5336 11.2565 20.4038 11.7413C19.9084 13.5921 18.1423 14.9999 15.9974 14.9999C13.8525 14.9999 12.0864 13.5921 11.591 11.7413C11.4612 11.2565 10.9922 10.943 10.4946 11.0085C9.99702 11.0739 9.62502 11.498 9.62502 11.9999C9.62502 13.6499 8.27565 14.9999 6.59573 14.9999C5.28916 14.9999 4.17831 14.1813 3.75247 13.0381C3.68736 12.8633 3.67838 12.8308 3.67187 12.7892C3.6651 12.7461 3.65603 12.6473 3.67761 12.3881C3.70612 12.0457 3.77426 11.9061 4.14097 11.2691L5.42586 9.03685C5.96747 8.09592 6.25264 7.0304 6.25264 5.9457ZM7.88422 2.33325C5.88544 2.33325 4.25264 3.94374 4.25264 5.9457C4.25264 6.67955 4.05975 7.4011 3.6925 8.03911L2.40762 10.2713L2.37752 10.3236C2.03243 10.9225 1.75223 11.4088 1.68451 12.2222C1.65699 12.5527 1.65393 12.8308 1.69602 13.0991C1.73634 13.3562 1.81326 13.5622 1.86988 13.7138L1.87827 13.7362C2.12545 14.3998 2.50998 14.9967 2.9974 15.4929L2.9974 20.7398C2.99737 22.5632 2.99735 24.033 3.15276 25.1889C3.31412 26.3891 3.65931 27.3996 4.46186 28.2021C5.26442 29.0047 6.27492 29.3499 7.47506 29.5112C8.63102 29.6666 10.1008 29.6666 11.9242 29.6666H20.0706C21.894 29.6666 23.3638 29.6666 24.5197 29.5112C25.7199 29.3499 26.7304 29.0047 27.5329 28.2021C28.3355 27.3996 28.6807 26.3891 28.842 25.1889C28.9974 24.033 28.9974 22.5632 28.9974 20.7398V20.7397V15.493C29.4848 14.9967 29.8694 14.3998 30.1165 13.7363L30.1249 13.7138L30.1249 13.7137C30.1815 13.5622 30.2585 13.3562 30.2988 13.0991C30.3409 12.8307 30.3378 12.5527 30.3103 12.2222C30.2426 11.4088 29.9624 10.9225 29.6173 10.3236L29.5872 10.2713L28.3023 8.03911C27.9351 7.4011 27.7422 6.67955 27.7422 5.9457C27.7422 3.94374 26.1094 2.33325 24.1106 2.33325H7.88422ZM26.9974 16.7421C26.4951 16.9093 25.9577 16.9999 25.3991 16.9999C23.5907 16.9999 22.0004 16.0492 21.114 14.6191C19.9092 16.0765 18.0569 16.9999 15.9974 16.9999C13.9379 16.9999 12.0856 16.0765 10.8809 14.6191C9.99437 16.0492 8.40414 16.9999 6.59573 16.9999C6.03714 16.9999 5.49965 16.9093 4.9974 16.7421V20.6666C4.9974 22.5805 4.99952 23.9153 5.13493 24.9224C5.26646 25.9008 5.50706 26.4189 5.87608 26.7879C6.24509 27.1569 6.76319 27.3975 7.74156 27.5291C8.74869 27.6645 10.0835 27.6666 11.9974 27.6666H19.9974C21.9113 27.6666 23.2461 27.6645 24.2532 27.5291C25.2316 27.3975 25.7497 27.1569 26.1187 26.7879C26.4877 26.4189 26.7283 25.9008 26.8599 24.9224C26.9953 23.9153 26.9974 22.5805 26.9974 20.6666V16.7421ZM11.2495 22.0028C11.6162 21.5897 12.2482 21.5521 12.6612 21.9187C13.3551 22.5346 14.5547 22.9999 15.9974 22.9999C17.4401 22.9999 18.6397 22.5346 19.3336 21.9187C19.7466 21.5521 20.3787 21.5897 20.7453 22.0028C21.1119 22.4158 21.0743 23.0478 20.6612 23.4145C19.5308 24.4179 17.826 24.9999 15.9974 24.9999C14.1688 24.9999 12.464 24.4179 11.3336 23.4145C10.9205 23.0478 10.8829 22.4158 11.2495 22.0028Z"
    fill="currentColor"></path>
</svg>